<svg width="25" height="24" viewBox="0 0 25 24" fill="none" xmlns="http://www.w3.org/2000/svg">
<path fill-rule="evenodd" clip-rule="evenodd" d="M4 7.5C4.82843 7.5 5.5 6.82843 5.5 6C5.5 5.17157 4.82843 4.5 4 4.5C3.17157 4.5 2.5 5.17157 2.5 6C2.5 6.82843 3.17157 7.5 4 7.5ZM7.5 5.25H22.5V6.75H7.5V5.25ZM22.5 11.25H7.5V12.75H22.5V11.25ZM22.5 17.25H7.5V18.75H22.5V17.25ZM5.5 12C5.5 12.8284 4.82843 13.5 4 13.5C3.17157 13.5 2.5 12.8284 2.5 12C2.5 11.1716 3.17157 10.5 4 10.5C4.82843 10.5 5.5 11.1716 5.5 12ZM4 19.5C4.82843 19.5 5.5 18.8284 5.5 18C5.5 17.1716 4.82843 16.5 4 16.5C3.17157 16.5 2.5 17.1716 2.5 18C2.5 18.8284 3.17157 19.5 4 19.5Z" fill="#E8E9EA"/>
</svg>
